<mxfile host="app.diagrams.net" modified="2023-06-26T09:08:07.381Z" agent="Mozilla/5.0 (Windows NT 10.0; Win64; x64) AppleWebKit/537.36 (KHTML, like Gecko) Chrome/103.0.0.0 Safari/537.36" etag="RHBhT9fqF6uca_7g65f5" version="21.5.0" type="device">
  <diagram name="Страница 1" id="GlvKXFErHA3dUHYEbVRH">
    <mxGraphModel dx="1050" dy="573" grid="1" gridSize="10" guides="1" tooltips="1" connect="1" arrows="1" fold="1" page="1" pageScale="1" pageWidth="827" pageHeight="1169" math="0" shadow="0">
      <root>
        <mxCell id="0" />
        <mxCell id="1" parent="0" />
        <mxCell id="DjKy542Lsw9fCfkk8dDb-2" style="edgeStyle=orthogonalEdgeStyle;rounded=0;orthogonalLoop=1;jettySize=auto;html=1;exitX=0.5;exitY=0.5;exitDx=0;exitDy=0;exitPerimeter=0;" edge="1" parent="1" source="DjKy542Lsw9fCfkk8dDb-1">
          <mxGeometry relative="1" as="geometry">
            <mxPoint x="210" y="270" as="targetPoint" />
          </mxGeometry>
        </mxCell>
        <mxCell id="DjKy542Lsw9fCfkk8dDb-1" value="Programmas izmantotajs" style="shape=umlActor;verticalLabelPosition=bottom;verticalAlign=top;html=1;outlineConnect=0;" vertex="1" parent="1">
          <mxGeometry x="100" y="240" width="30" height="60" as="geometry" />
        </mxCell>
        <mxCell id="DjKy542Lsw9fCfkk8dDb-4" style="edgeStyle=orthogonalEdgeStyle;rounded=0;orthogonalLoop=1;jettySize=auto;html=1;exitX=0.5;exitY=1;exitDx=0;exitDy=0;" edge="1" parent="1" source="DjKy542Lsw9fCfkk8dDb-3">
          <mxGeometry relative="1" as="geometry">
            <mxPoint x="270" y="360" as="targetPoint" />
          </mxGeometry>
        </mxCell>
        <mxCell id="DjKy542Lsw9fCfkk8dDb-6" style="edgeStyle=orthogonalEdgeStyle;rounded=0;orthogonalLoop=1;jettySize=auto;html=1;exitX=1;exitY=0.5;exitDx=0;exitDy=0;" edge="1" parent="1" source="DjKy542Lsw9fCfkk8dDb-3">
          <mxGeometry relative="1" as="geometry">
            <mxPoint x="390" y="270" as="targetPoint" />
          </mxGeometry>
        </mxCell>
        <mxCell id="DjKy542Lsw9fCfkk8dDb-3" value="Startēt programmu (testu)" style="ellipse;whiteSpace=wrap;html=1;" vertex="1" parent="1">
          <mxGeometry x="210" y="240" width="120" height="60" as="geometry" />
        </mxCell>
        <mxCell id="DjKy542Lsw9fCfkk8dDb-5" value="Aizvērt programmu (testu)" style="ellipse;whiteSpace=wrap;html=1;" vertex="1" parent="1">
          <mxGeometry x="210" y="360" width="120" height="60" as="geometry" />
        </mxCell>
        <mxCell id="DjKy542Lsw9fCfkk8dDb-8" style="edgeStyle=orthogonalEdgeStyle;rounded=0;orthogonalLoop=1;jettySize=auto;html=1;exitX=1;exitY=0.5;exitDx=0;exitDy=0;" edge="1" parent="1" source="DjKy542Lsw9fCfkk8dDb-7">
          <mxGeometry relative="1" as="geometry">
            <mxPoint x="570" y="270" as="targetPoint" />
          </mxGeometry>
        </mxCell>
        <mxCell id="DjKy542Lsw9fCfkk8dDb-10" style="edgeStyle=orthogonalEdgeStyle;rounded=0;orthogonalLoop=1;jettySize=auto;html=1;exitX=0.5;exitY=1;exitDx=0;exitDy=0;" edge="1" parent="1" source="DjKy542Lsw9fCfkk8dDb-7">
          <mxGeometry relative="1" as="geometry">
            <mxPoint x="450" y="360" as="targetPoint" />
          </mxGeometry>
        </mxCell>
        <mxCell id="DjKy542Lsw9fCfkk8dDb-12" style="edgeStyle=orthogonalEdgeStyle;rounded=0;orthogonalLoop=1;jettySize=auto;html=1;exitX=0.5;exitY=0;exitDx=0;exitDy=0;" edge="1" parent="1" source="DjKy542Lsw9fCfkk8dDb-7">
          <mxGeometry relative="1" as="geometry">
            <mxPoint x="450" y="180" as="targetPoint" />
          </mxGeometry>
        </mxCell>
        <mxCell id="DjKy542Lsw9fCfkk8dDb-7" value="Izpidlīt testu, ievadot būrtus" style="ellipse;whiteSpace=wrap;html=1;" vertex="1" parent="1">
          <mxGeometry x="390" y="240" width="120" height="60" as="geometry" />
        </mxCell>
        <mxCell id="DjKy542Lsw9fCfkk8dDb-9" value="Programmas (Testa) beigās apskatīt pareizo atbilžu skaitu, nepareizas atbildes un kādas uz tiem bija pareizas atbildes" style="ellipse;whiteSpace=wrap;html=1;" vertex="1" parent="1">
          <mxGeometry x="570" y="215" width="190" height="110" as="geometry" />
        </mxCell>
        <mxCell id="DjKy542Lsw9fCfkk8dDb-11" value="Ievadīt vajadzīgos būrtus" style="ellipse;whiteSpace=wrap;html=1;" vertex="1" parent="1">
          <mxGeometry x="390" y="360" width="120" height="60" as="geometry" />
        </mxCell>
        <mxCell id="DjKy542Lsw9fCfkk8dDb-14" value="Ievadīt liekus būrtus" style="ellipse;whiteSpace=wrap;html=1;" vertex="1" parent="1">
          <mxGeometry x="390" y="120" width="120" height="60" as="geometry" />
        </mxCell>
        <mxCell id="DjKy542Lsw9fCfkk8dDb-15" value="A" style="ellipse;whiteSpace=wrap;html=1;" vertex="1" parent="1">
          <mxGeometry x="396" y="440" width="36" height="30" as="geometry" />
        </mxCell>
        <mxCell id="DjKy542Lsw9fCfkk8dDb-16" value="B" style="ellipse;whiteSpace=wrap;html=1;" vertex="1" parent="1">
          <mxGeometry x="450" y="440" width="36" height="30" as="geometry" />
        </mxCell>
        <mxCell id="DjKy542Lsw9fCfkk8dDb-17" value="C" style="ellipse;whiteSpace=wrap;html=1;" vertex="1" parent="1">
          <mxGeometry x="500" y="420" width="36" height="30" as="geometry" />
        </mxCell>
        <mxCell id="DjKy542Lsw9fCfkk8dDb-18" value="D" style="ellipse;whiteSpace=wrap;html=1;" vertex="1" parent="1">
          <mxGeometry x="536" y="380" width="36" height="30" as="geometry" />
        </mxCell>
        <mxCell id="DjKy542Lsw9fCfkk8dDb-19" value="Citus būrtus no tastatūras" style="ellipse;whiteSpace=wrap;html=1;" vertex="1" parent="1">
          <mxGeometry x="390" y="40" width="120" height="60" as="geometry" />
        </mxCell>
        <mxCell id="DjKy542Lsw9fCfkk8dDb-20" value="" style="endArrow=none;html=1;rounded=0;exitX=0.5;exitY=0;exitDx=0;exitDy=0;entryX=0.5;entryY=1;entryDx=0;entryDy=0;" edge="1" parent="1" source="DjKy542Lsw9fCfkk8dDb-14" target="DjKy542Lsw9fCfkk8dDb-19">
          <mxGeometry width="50" height="50" relative="1" as="geometry">
            <mxPoint x="560" y="130" as="sourcePoint" />
            <mxPoint x="610" y="80" as="targetPoint" />
          </mxGeometry>
        </mxCell>
        <mxCell id="DjKy542Lsw9fCfkk8dDb-21" value="" style="endArrow=none;html=1;rounded=0;entryX=0.213;entryY=0.923;entryDx=0;entryDy=0;entryPerimeter=0;exitX=0.5;exitY=0;exitDx=0;exitDy=0;" edge="1" parent="1" source="DjKy542Lsw9fCfkk8dDb-15" target="DjKy542Lsw9fCfkk8dDb-11">
          <mxGeometry width="50" height="50" relative="1" as="geometry">
            <mxPoint x="270" y="480" as="sourcePoint" />
            <mxPoint x="320" y="430" as="targetPoint" />
          </mxGeometry>
        </mxCell>
        <mxCell id="DjKy542Lsw9fCfkk8dDb-22" value="" style="endArrow=none;html=1;rounded=0;entryX=0.213;entryY=0.923;entryDx=0;entryDy=0;entryPerimeter=0;exitX=0.5;exitY=0;exitDx=0;exitDy=0;" edge="1" parent="1" source="DjKy542Lsw9fCfkk8dDb-16">
          <mxGeometry width="50" height="50" relative="1" as="geometry">
            <mxPoint x="460" y="445" as="sourcePoint" />
            <mxPoint x="462" y="420" as="targetPoint" />
          </mxGeometry>
        </mxCell>
        <mxCell id="DjKy542Lsw9fCfkk8dDb-23" value="" style="endArrow=none;html=1;rounded=0;entryX=1;entryY=1;entryDx=0;entryDy=0;exitX=0;exitY=0;exitDx=0;exitDy=0;" edge="1" parent="1" source="DjKy542Lsw9fCfkk8dDb-17" target="DjKy542Lsw9fCfkk8dDb-11">
          <mxGeometry width="50" height="50" relative="1" as="geometry">
            <mxPoint x="486" y="435" as="sourcePoint" />
            <mxPoint x="488" y="410" as="targetPoint" />
          </mxGeometry>
        </mxCell>
        <mxCell id="DjKy542Lsw9fCfkk8dDb-24" value="" style="endArrow=none;html=1;rounded=0;entryX=1;entryY=0.5;entryDx=0;entryDy=0;exitX=0;exitY=0.5;exitDx=0;exitDy=0;" edge="1" parent="1" source="DjKy542Lsw9fCfkk8dDb-18" target="DjKy542Lsw9fCfkk8dDb-11">
          <mxGeometry width="50" height="50" relative="1" as="geometry">
            <mxPoint x="534" y="375" as="sourcePoint" />
            <mxPoint x="536" y="350" as="targetPoint" />
          </mxGeometry>
        </mxCell>
      </root>
    </mxGraphModel>
  </diagram>
</mxfile>
